# xmcd
#
# Track frame offsets:
#	150
#	19626
#	30203
#	42807
#	60410
#	71623
#	89867
#	102514
#	120910
#	139061
#	149939
#	163843
#	175181
#	186430
#	197953
#	218023
#	229685
#
# Disc length: 3093 seconds
#
# Revision: 0
# Processed by: cddbd v1.5.1PL0 Copyright (c) Steve Scherf et al.
# Submitted via: dBpowerAMP V4.0
#
DISCID=f60c1311
DTITLE=Ed Wright - Just Right
DYEAR=1900
DGENRE=Blues
TTITLE0=Computer, computer
TTITLE1=Good morning little school girl
TTITLE2=Be there in the morning
TTITLE3=Rock me baby
TTITLE4=My babe
TTITLE5=You are my sunshine
TTITLE6=Buckets of rain
TTITLE7=Back door man
TTITLE8=Dust my broom
TTITLE9=Rolling in my sweet baby's arms
TTITLE10=Before you accuse me
TTITLE11=God trying to get your attention
TTITLE12=Motor head
TTITLE13=My life
TTITLE14=Death letter blues
TTITLE15=Ain't drunk no gin
TTITLE16=The last laugh
EXTD=Blues artist performing in the Orlando area
EXTT0=
EXTT1=
EXTT2=
EXTT3=
EXTT4=
EXTT5=
EXTT6=
EXTT7=
EXTT8=
EXTT9=
EXTT10=
EXTT11=
EXTT12=
EXTT13=
EXTT14=
EXTT15=
EXTT16=
PLAYORDER=
